<svg width="32" height="32" viewBox="0 0 32 32" fill="none" xmlns="http://www.w3.org/2000/svg">
<path d="M5.72389 24.3907L14.1146 16L5.72389 7.60934C5.48101 7.35787 5.34662 7.02107 5.34966 6.67147C5.3527 6.32188 5.49292 5.98746 5.74013 5.74025C5.98734 5.49304 6.32176 5.35281 6.67136 5.34977C7.02095 5.34674 7.35776 5.48113 7.60923 5.72401L15.9999 14.1147L24.3906 5.72401C24.5136 5.59666 24.6607 5.49508 24.8234 5.4252C24.986 5.35533 25.161 5.31854 25.338 5.31701C25.5151 5.31547 25.6906 5.3492 25.8545 5.41624C26.0184 5.48329 26.1672 5.58229 26.2924 5.70748C26.4176 5.83267 26.5166 5.98154 26.5837 6.1454C26.6507 6.30926 26.6844 6.48484 26.6829 6.66188C26.6814 6.83891 26.6446 7.01387 26.5747 7.17655C26.5048 7.33922 26.4032 7.48634 26.2759 7.60934L17.8852 16L26.2759 24.3907C26.4032 24.5137 26.5048 24.6608 26.5747 24.8235C26.6446 24.9861 26.6814 25.1611 26.6829 25.3381C26.6844 25.5152 26.6507 25.6908 26.5837 25.8546C26.5166 26.0185 26.4176 26.1673 26.2924 26.2925C26.1672 26.4177 26.0184 26.5167 25.8545 26.5838C25.6906 26.6508 25.5151 26.6845 25.338 26.683C25.161 26.6815 24.986 26.6447 24.8234 26.5748C24.6607 26.5049 24.5136 26.4034 24.3906 26.276L15.9999 17.8853L7.60923 26.276C7.35776 26.5189 7.02095 26.6533 6.67136 26.6502C6.32176 26.6472 5.98734 26.507 5.74013 26.2598C5.49292 26.0126 5.3527 25.6781 5.34966 25.3285C5.34662 24.9789 5.48101 24.6421 5.72389 24.3907Z" fill="#845EF7"/>
</svg>
