<svg width="390" height="360" viewBox="0 0 390 360" fill="none" xmlns="http://www.w3.org/2000/svg">
<path d="M98.3793 345.46C97.9489 345.478 97.5229 345.374 97.1589 345.163C96.795 344.952 96.5106 344.644 96.3444 344.279C96.1783 343.915 96.1382 343.513 96.2299 343.127C96.3215 342.742 96.5403 342.391 96.8566 342.123C96.9096 341.93 96.9476 341.792 97.0005 341.599C96.5887 340.64 95.8739 339.816 94.9476 339.232C94.0213 338.648 92.9258 338.331 91.8015 338.322C90.6772 338.312 89.5754 338.61 88.6373 339.178C87.6991 339.746 86.9674 340.557 86.5359 341.508C84.0459 346.849 80.8232 352.377 82.4259 358.259C71.8397 337.702 75.4398 312.13 91.0848 294.549C95.4093 292.367 98.9144 288.489 99.8269 283.986C97.6867 284.65 95.0182 283.055 96.6274 280.99C97.3249 280.2 98.0292 279.417 98.7266 278.627C90.5967 270.694 80.91 283.162 89.8587 293.87C86.9313 297.233 84.3957 300.867 82.293 304.713C82.7786 300.629 82.1991 296.498 80.6021 292.659C78.9836 289.082 75.95 286.069 73.2785 282.976C70.0303 279.208 63.3452 280.946 62.9081 285.728C65.9058 286.631 66.2952 290.598 62.8663 291.141C63.7644 300.038 70.1076 308.213 78.8441 312.115C75.6178 320.409 74.358 329.239 75.1486 338.014C73.6065 327.758 61.5912 325.269 53.1931 321.193C52.6586 320.879 52.0359 320.714 51.4009 320.719C50.7659 320.724 50.1462 320.897 49.6172 321.219C49.0883 321.541 48.673 321.997 48.4221 322.532C48.1711 323.066 48.0954 323.656 48.204 324.229C49.3631 324.661 50.4726 325.197 51.516 325.83C52.0049 326.131 52.3802 326.564 52.5904 327.068C52.8006 327.572 52.8354 328.124 52.6901 328.647C52.5448 329.17 52.2265 329.639 51.7788 329.99C51.331 330.341 50.7759 330.556 50.1893 330.607C54.4225 340.206 65.367 346.653 76.6076 346.616C77.6879 350.917 79.253 355.104 81.2778 359.108H97.9612C98.0211 358.938 98.0748 358.763 98.1287 358.593C96.5844 358.682 95.0341 358.598 93.5123 358.341C97.5979 353.909 100.758 351.648 98.3798 345.46L98.3793 345.46Z" fill="#F2F2F2"/>
<path d="M247.115 345.46C247.545 345.478 247.971 345.374 248.335 345.163C248.699 344.952 248.984 344.644 249.15 344.279C249.316 343.915 249.356 343.513 249.265 343.127C249.173 342.742 248.954 342.391 248.638 342.123C248.585 341.93 248.547 341.792 248.494 341.599C248.906 340.64 249.621 339.816 250.547 339.232C251.473 338.648 252.569 338.331 253.693 338.322C254.817 338.312 255.919 338.61 256.857 339.178C257.795 339.746 258.527 340.557 258.958 341.508C261.448 346.849 264.671 352.377 263.068 358.259C273.655 337.702 270.055 312.13 254.41 294.549C250.085 292.367 246.58 288.489 245.667 283.986C247.808 284.65 250.476 283.055 248.867 280.99C248.169 280.2 247.465 279.417 246.768 278.627C254.898 270.694 264.584 283.162 255.636 293.87C258.563 297.233 261.099 300.867 263.201 304.713C262.716 300.629 263.295 296.498 264.892 292.659C266.511 289.082 269.544 286.069 272.216 282.976C275.464 279.208 282.149 280.946 282.586 285.728C279.589 286.631 279.199 290.598 282.628 291.141C281.73 300.038 275.387 308.213 266.65 312.115C269.877 320.409 271.136 329.239 270.346 338.014C271.888 327.758 283.903 325.269 292.301 321.193C292.836 320.879 293.459 320.714 294.094 320.719C294.728 320.724 295.348 320.897 295.877 321.219C296.406 321.541 296.821 321.997 297.072 322.532C297.323 323.066 297.399 323.656 297.29 324.229C296.131 324.661 295.022 325.197 293.978 325.83C293.49 326.131 293.114 326.564 292.904 327.068C292.694 327.572 292.659 328.124 292.804 328.647C292.95 329.17 293.268 329.639 293.716 329.99C294.163 330.341 294.719 330.556 295.305 330.607C291.072 340.206 280.127 346.653 268.887 346.616C267.807 350.917 266.241 355.104 264.217 359.108H247.533C247.473 358.938 247.42 358.763 247.366 358.593C248.91 358.682 250.46 358.598 251.982 358.341C247.896 353.909 244.737 351.648 247.115 345.46L247.115 345.46Z" fill="#F2F2F2"/>
<path d="M253.301 347.73L246.116 349.227L236.392 324.548L246.996 322.337L253.301 347.73Z" fill="#FFB6B6"/>
<path d="M255.26 354.544L233.166 359.15L233.102 358.894C232.583 356.804 232.992 354.611 234.237 352.798C235.483 350.984 237.464 349.697 239.745 349.222L239.745 349.222L243.084 345.575L251.311 346.81L253.24 346.408L255.26 354.544Z" fill="#2F2E41"/>
<path d="M369.203 227.433L373.153 233.132L351.041 249.805L345.211 241.393L369.203 227.433Z" fill="#FFB6B6"/>
<path d="M375.553 223.456L387.7 240.982L387.458 241.123C385.483 242.272 383.092 242.655 380.809 242.188C378.526 241.721 376.539 240.443 375.285 238.634L375.284 238.633L370.415 236.975L368.926 229.459L367.865 227.929L375.553 223.456Z" fill="#2F2E41"/>
<path d="M140.178 166.5L138.404 157.076L165.382 145.913L171.209 136.462C171.02 135.632 171.086 134.772 171.398 133.974C171.711 133.177 172.257 132.474 172.978 131.944C173.699 131.413 174.566 131.076 175.483 130.968C176.4 130.861 177.332 130.988 178.175 131.335C179.018 131.682 179.74 132.236 180.262 132.936C180.783 133.636 181.083 134.454 181.128 135.3C181.174 136.146 180.964 136.987 180.52 137.73C180.077 138.474 179.418 139.09 178.616 139.512L169.032 153.089L140.178 166.5Z" fill="#A0616A"/>
<path d="M131.977 158.796L144.126 153.11L147.342 164.174L138.904 169.906L131.977 158.796Z" fill="#6C63FF"/>
<path d="M104.715 346.873L112.061 346.872L115.555 320.91L104.713 320.911L104.715 346.873Z" fill="#A0616A"/>
<path d="M114.505 347.478V342.915L112.574 343.023L104.713 343.45L102.893 343.553L101.502 358.835L101.428 359.654H106.644L106.811 358.84L107.569 355.142L109.525 358.84L109.953 359.654H123.782C124.605 359.649 125.393 359.347 125.974 358.814C126.555 358.28 126.883 357.558 126.887 356.804C127.471 354.306 115.971 348.906 114.505 347.478Z" fill="#2F2E41"/>
<path d="M17.5157 243.84L15.8032 250.386L42.5422 259.553L45.0692 249.893L17.5157 243.84Z" fill="#A0616A"/>
<path d="M15.1713 252.423L20.0141 253.487L20.3496 251.741L21.7297 244.637L22.0452 242.992L6.15032 238.189L5.29815 237.932L4.08197 242.579L4.90638 242.918L8.65472 244.456L4.27367 245.336L3.31028 245.528L0.0859755 257.85C-0.100827 258.584 0.0360621 259.356 0.466945 259.999C0.897828 260.641 1.5879 261.102 2.3873 261.281C4.90208 262.383 13.3139 253.395 15.1713 252.423Z" fill="#2F2E41"/>
<path d="M116.073 178.849L106.618 174.799L87.7617 195.707L76.2762 198.369C75.4525 197.984 74.5288 197.815 73.6071 197.882C72.6854 197.948 71.8015 198.246 71.0532 198.743C70.3049 199.241 69.7212 199.918 69.3667 200.701C69.0121 201.483 68.9004 202.34 69.044 203.177C69.1876 204.014 69.5808 204.798 70.1803 205.443C70.7798 206.088 71.5621 206.568 72.4409 206.831C73.3197 207.094 74.2608 207.13 75.1602 206.934C76.0596 206.737 76.8823 206.317 77.5375 205.719L94.3558 200.822L116.073 178.849Z" fill="#A0616A"/>
<path d="M250.125 101.449C248.12 101.449 246.161 100.904 244.495 99.8842C242.828 98.8639 241.529 97.4138 240.762 95.7171C239.995 94.0205 239.795 92.1536 240.186 90.3524C240.577 88.5513 241.542 86.8968 242.959 85.5983C244.376 84.2997 246.182 83.4154 248.148 83.0571C250.113 82.6989 252.151 82.8827 254.003 83.5855C255.854 84.2883 257.437 85.4784 258.551 87.0053C259.664 88.5322 260.258 90.3274 260.258 92.1639C260.255 94.6256 259.187 96.9857 257.287 98.7264C255.387 100.467 252.811 101.446 250.125 101.449ZM250.125 83.9443C248.35 83.9443 246.616 84.4264 245.141 85.3295C243.666 86.2327 242.516 87.5164 241.837 89.0184C241.158 90.5203 240.98 92.173 241.326 93.7674C241.672 95.3619 242.527 96.8265 243.781 97.976C245.036 99.1255 246.634 99.9084 248.375 100.226C250.115 100.543 251.918 100.38 253.558 99.7578C255.197 99.1356 256.598 98.0821 257.584 96.7304C258.569 95.3787 259.095 93.7895 259.095 92.1639C259.093 89.9846 258.147 87.8954 256.465 86.3545C254.783 84.8135 252.503 83.9468 250.125 83.9443Z" fill="#E6E6E6"/>
<path d="M249.41 95.6618C249.389 95.6618 249.369 95.6612 249.349 95.6603C249.169 95.6524 248.993 95.6089 248.833 95.5328C248.673 95.4567 248.533 95.3498 248.423 95.2195L246.826 93.3391C246.725 93.2204 246.651 93.0846 246.608 92.9396C246.564 92.7946 246.552 92.6432 246.572 92.4939C246.593 92.3447 246.645 92.2006 246.726 92.0698C246.807 91.9391 246.916 91.8243 247.045 91.732L247.103 91.691C247.232 91.5986 247.38 91.5305 247.539 91.4905C247.697 91.4506 247.862 91.4397 248.025 91.4583C248.188 91.477 248.345 91.5249 248.488 91.5993C248.631 91.6737 248.756 91.7731 248.857 91.8919C248.938 91.9867 249.04 92.0645 249.156 92.1199C249.273 92.1753 249.401 92.207 249.532 92.2129C249.663 92.2187 249.794 92.1986 249.916 92.1538C250.037 92.109 250.147 92.0407 250.237 91.9535L253.479 88.8182C253.707 88.598 254.021 88.4697 254.352 88.4615C254.683 88.4532 255.005 88.5657 255.246 88.7742L255.299 88.8206C255.418 88.924 255.514 89.0479 255.581 89.1853C255.648 89.3226 255.684 89.4707 255.689 89.621C255.693 89.7714 255.665 89.921 255.606 90.0615C255.548 90.2019 255.459 90.3304 255.347 90.4395L250.317 95.3042C250.2 95.4172 250.059 95.5072 249.903 95.5687C249.747 95.6302 249.579 95.6619 249.41 95.6618Z" fill="#E6E6E6"/>
<path d="M199.537 213.865C197.533 213.865 195.573 213.321 193.907 212.301C192.24 211.28 190.941 209.83 190.174 208.134C189.407 206.437 189.207 204.57 189.598 202.769C189.989 200.968 190.954 199.313 192.371 198.015C193.788 196.716 195.594 195.832 197.56 195.474C199.526 195.115 201.563 195.299 203.415 196.002C205.267 196.705 206.849 197.895 207.963 199.422C209.076 200.949 209.671 202.744 209.671 204.58C209.668 207.042 208.599 209.402 206.699 211.143C204.799 212.884 202.224 213.863 199.537 213.865ZM199.537 196.361C197.763 196.361 196.028 196.843 194.553 197.746C193.078 198.649 191.928 199.933 191.249 201.435C190.57 202.937 190.392 204.589 190.738 206.184C191.085 207.778 191.939 209.243 193.193 210.392C194.448 211.542 196.047 212.325 197.787 212.642C199.527 212.959 201.331 212.796 202.97 212.174C204.609 211.552 206.01 210.499 206.996 209.147C207.981 207.795 208.508 206.206 208.508 204.58C208.505 202.401 207.559 200.312 205.877 198.771C204.195 197.23 201.915 196.363 199.537 196.361Z" fill="#E6E6E6"/>
<path d="M198.822 208.078C198.801 208.078 198.781 208.078 198.761 208.077C198.581 208.069 198.405 208.025 198.245 207.949C198.085 207.873 197.945 207.766 197.835 207.636L196.238 205.756C196.137 205.637 196.063 205.501 196.02 205.356C195.976 205.211 195.964 205.06 195.984 204.91C196.005 204.761 196.057 204.617 196.138 204.486C196.219 204.356 196.328 204.241 196.457 204.148L196.515 204.108C196.644 204.015 196.793 203.947 196.951 203.907C197.109 203.867 197.274 203.856 197.437 203.875C197.6 203.893 197.758 203.941 197.9 204.016C198.043 204.09 198.168 204.19 198.269 204.308C198.35 204.403 198.452 204.481 198.568 204.536C198.685 204.592 198.813 204.624 198.944 204.629C199.075 204.635 199.206 204.615 199.328 204.57C199.449 204.526 199.559 204.457 199.65 204.37L202.891 201.235C203.119 201.015 203.433 200.886 203.764 200.878C204.096 200.87 204.417 200.982 204.658 201.191L204.711 201.237C204.83 201.341 204.926 201.464 204.993 201.602C205.06 201.739 205.096 201.887 205.101 202.038C205.105 202.188 205.077 202.338 205.019 202.478C204.96 202.618 204.872 202.747 204.759 202.856L199.729 207.721C199.612 207.834 199.471 207.924 199.315 207.985C199.159 208.047 198.992 208.078 198.822 208.078Z" fill="#E6E6E6"/>
<path d="M88.4758 88.6623C86.4715 88.6623 84.5123 88.1177 82.8458 87.0975C81.1793 86.0772 79.8804 84.6271 79.1134 82.9304C78.3464 81.2338 78.1457 79.3668 78.5368 77.5657C78.9278 75.7646 79.8929 74.1101 81.3101 72.8116C82.7274 71.513 84.533 70.6287 86.4988 70.2704C88.4645 69.9121 90.5021 70.096 92.3538 70.7988C94.2055 71.5016 95.7881 72.6917 96.9016 74.2186C98.0152 75.7455 98.6095 77.5407 98.6095 79.3771C98.6065 81.8389 97.5379 84.199 95.6381 85.9397C93.7383 87.6804 91.1625 88.6595 88.4758 88.6623ZM88.4758 71.1576C86.7015 71.1576 84.9671 71.6396 83.4919 72.5428C82.0166 73.446 80.8668 74.7297 80.1878 76.2316C79.5089 77.7336 79.3312 79.3863 79.6774 80.9807C80.0235 82.5752 80.8779 84.0397 82.1325 85.1893C83.3871 86.3388 84.9855 87.1216 86.7256 87.4388C88.4658 87.756 90.2695 87.5932 91.9087 86.9711C93.5479 86.3489 94.949 85.2954 95.9347 83.9437C96.9204 82.592 97.4466 81.0028 97.4465 79.3771C97.4439 77.1979 96.4979 75.1087 94.8161 73.5678C93.1343 72.0268 90.8541 71.16 88.4758 71.1576Z" fill="#E6E6E6"/>
<path d="M87.7607 82.8752C87.7403 82.8752 87.72 82.8746 87.6996 82.8736C87.5197 82.8657 87.3438 82.8222 87.184 82.7461C87.0241 82.67 86.8842 82.5631 86.7736 82.4328L85.1773 80.5524C85.0765 80.4337 85.0022 80.2979 84.9586 80.1529C84.9151 80.0079 84.9031 79.8565 84.9235 79.7072C84.9438 79.558 84.996 79.4139 85.0772 79.2832C85.1583 79.1524 85.2668 79.0376 85.3963 78.9453L85.4538 78.9043C85.5833 78.8119 85.7315 78.7438 85.8898 78.7038C86.0481 78.6639 86.2134 78.653 86.3763 78.6716C86.5393 78.6903 86.6966 78.7382 86.8393 78.8126C86.982 78.887 87.1073 78.9864 87.2081 79.1052C87.2887 79.2 87.3907 79.2778 87.5072 79.3332C87.6237 79.3886 87.7518 79.4203 87.8829 79.4262C88.0139 79.432 88.1448 79.4119 88.2666 79.3671C88.3884 79.3223 88.4982 79.254 88.5885 79.1668L91.8297 76.0315C92.0579 75.8113 92.3721 75.683 92.7033 75.6748C93.0346 75.6665 93.3559 75.779 93.5968 75.9875L93.6499 76.0339C93.7691 76.1373 93.8649 76.2612 93.9318 76.3986C93.9987 76.5359 94.0354 76.684 94.0398 76.8343C94.0442 76.9847 94.0163 77.1343 93.9576 77.2748C93.8988 77.4152 93.8105 77.5437 93.6976 77.6528L88.6676 82.5175C88.551 82.6305 88.4104 82.7205 88.2544 82.782C88.0985 82.8435 87.9305 82.8752 87.7607 82.8752Z" fill="#E6E6E6"/>
<path d="M169.606 248.389C146.108 248.389 119.101 224.496 95.2078 235.848C22.8641 270.219 32.8226 212.704 12.0388 191.313L12.7212 190.059C35.6536 208.9 64.2856 224.229 95.5219 234.389C123.75 243.571 152.189 247.826 177.755 246.703L177.8 248.21C175.1 248.33 172.369 248.389 169.606 248.389Z" fill="#F2F2F2"/>
<path d="M137.372 86.8447C140.085 86.8447 142.284 84.1428 142.284 80.8097C142.284 77.4766 140.085 74.7746 137.372 74.7746C134.659 74.7746 132.46 77.4766 132.46 80.8097C132.46 84.1428 134.659 86.8447 137.372 86.8447Z" fill="#E6E6E6"/>
<path d="M194.104 180.992C191.859 182.363 189.56 179.1 191.849 177.79C194.095 176.419 196.393 179.682 194.104 180.992Z" fill="#E6E6E6"/>
<path d="M181.178 71.1421C184.711 71.1421 187.575 68.5182 187.575 65.2815C187.575 62.0448 184.711 59.4209 181.178 59.4209C177.646 59.4209 174.782 62.0448 174.782 65.2815C174.782 68.5182 177.646 71.1421 181.178 71.1421Z" fill="#FF6584"/>
<path opacity="0.3" d="M203.55 97.3969L239.946 0L199.981 96.231C199.783 96.4594 199.648 96.7277 199.586 97.0137C199.524 97.2996 199.537 97.5949 199.625 97.8752C199.713 98.1554 199.872 98.4124 200.09 98.625C200.307 98.8376 200.577 98.9995 200.877 99.0974C201.176 99.1953 201.497 99.2263 201.813 99.1879C202.128 99.1495 202.429 99.0427 202.69 98.8764C202.951 98.7102 203.166 98.4893 203.315 98.232C203.465 97.9746 203.545 97.6884 203.55 97.3969H203.55Z" fill="#F0F0F0"/>
<path d="M166.812 216.055C170.249 216.055 173.036 213.502 173.036 210.353C173.036 207.204 170.249 204.651 166.812 204.651C163.376 204.651 160.589 207.204 160.589 210.353C160.589 213.502 163.376 216.055 166.812 216.055Z" fill="#F2F2F2"/>
<path d="M106.54 212.528C106.54 212.528 91.0264 221.784 95.1286 227.935C95.2701 228.147 76.5973 250.744 76.5973 250.744L41.3474 248.693L40.1055 259.503L71.4874 267.831C71.4874 267.831 79.1647 272.999 85.0955 267.305C91.0264 261.611 110.781 244.174 110.781 244.174L111.734 279.379L101.817 328.161L116.625 327.301L131.037 278.36L136.356 222.922L106.54 212.528Z" fill="#2F2E41"/>
<path d="M117.591 156.976L111.067 161.506L103.631 176.047L110.781 184.945C110.781 184.945 116.796 194.496 107.169 203.745C97.5415 212.995 90.1487 222.874 97.8544 222.521C105.56 222.168 136.769 236.713 136.975 224.797C137.18 212.881 137.596 203.745 137.596 203.745L145.778 184.73C145.778 184.73 150.653 173.386 147.23 169.991C143.808 166.595 139.225 162.256 139.225 162.256L130.891 154.62H123.367L117.591 156.976Z" fill="#6C63FF"/>
<path d="M129.769 129.036C144.405 136.667 132.39 156.801 117.481 149.631C102.846 142.001 114.861 121.866 129.769 129.036Z" fill="#A0616A"/>
<path d="M137.596 133.267C136.57 134.489 134.428 133.916 130.232 134.788C130.241 133.485 130.077 132.186 129.743 130.919C129.43 132.487 128.746 133.974 127.738 135.273C124.095 135.643 128.561 145.785 126.696 153.241C124.292 137.511 119.237 141.632 121.791 144.752C123.426 146.749 122.336 152.742 117.431 149.746C109.338 153.27 97.8114 135.764 110.587 127.554C110.358 123.116 115.747 122.415 119.066 123.779C127.12 118.282 136.321 125.326 137.596 133.267Z" fill="#2F2E41"/>
<path d="M100.043 121.789C96.7848 140.145 79.3195 118.413 71.1075 136.478C68.5255 143.02 72.9555 147.699 75.7577 153.13C76.3972 157.592 70.0612 159.856 69.3975 163.964C69.2128 173.382 85.795 172.805 90.4306 166.864C95.1938 160.644 89.5059 152.299 92.3689 145.623C96.3928 136.354 112.757 136.285 114.183 125.501C111.422 121.899 103.998 117.773 100.043 121.789Z" fill="#2F2E41"/>
<path d="M113.243 123.582C113.137 123.624 113.03 123.665 112.935 123.711H112.929C112.839 123.752 112.75 123.793 112.66 123.84C112.649 123.845 112.643 123.85 112.632 123.855C112.514 123.752 112.396 123.649 112.273 123.546C112.241 123.714 112.248 123.886 112.295 124.05L112.312 124.112C112.424 124.22 112.542 124.323 112.665 124.431C112.778 124.354 112.884 124.271 112.996 124.194C113.064 124.143 113.131 124.091 113.204 124.04C113.215 123.906 113.232 123.752 113.249 123.582L113.243 123.582ZM116.621 117.866C114.119 117.342 113.311 120.339 113.069 121.783C112.16 116.54 108.379 118.19 109.686 121.768C110.103 122.827 110.759 123.794 111.611 124.605C111.729 124.729 111.858 124.852 111.992 124.976C111.841 125.695 112.604 125.51 113.636 124.847C114.398 124.35 115.103 123.784 115.74 123.156C117.799 121.177 119.404 118.529 116.621 117.866ZM116.699 120.817C115.927 121.729 115.061 122.571 114.113 123.331C113.816 123.577 113.513 123.814 113.204 124.04C113.198 124.086 113.198 124.127 113.193 124.163C113.171 124.213 113.145 124.261 113.114 124.307C112.8 124.827 112.447 124.544 112.312 124.112C112.301 124.097 112.284 124.081 112.273 124.066C111.824 123.641 111.434 123.168 111.111 122.657C108.794 118.976 112.525 116.473 112.34 123.346C112.306 123.409 112.283 123.477 112.273 123.546C112.241 123.714 112.248 123.886 112.295 124.05L112.312 124.112C112.424 124.22 112.542 124.323 112.665 124.431C112.778 124.354 112.884 124.271 112.996 124.194C113.064 124.143 113.131 124.091 113.204 124.04C113.215 123.906 113.232 123.752 113.249 123.582V123.577C113.395 122.2 113.793 119.722 114.528 119.048C116.144 117.912 118.237 119.141 116.699 120.817ZM113.243 123.582C113.137 123.624 113.03 123.665 112.935 123.711H112.929C112.839 123.752 112.75 123.793 112.66 123.84C112.649 123.845 112.643 123.85 112.632 123.855C112.514 123.752 112.396 123.649 112.273 123.546C112.241 123.714 112.248 123.886 112.295 124.05L112.312 124.112C112.424 124.22 112.542 124.323 112.665 124.431C112.778 124.354 112.884 124.271 112.996 124.194C113.064 124.143 113.131 124.091 113.204 124.04C113.215 123.906 113.232 123.752 113.249 123.582L113.243 123.582Z" fill="#2F2E41"/>
<path d="M248.519 224.789L243.113 237.705L217.756 283.535L240.037 336.849L251.536 334.068L242.058 283.535L269.25 253.263L301.543 273.331C301.543 273.331 315.864 283.575 321.313 273.864C326.761 264.152 362.016 243.495 362.016 243.495L353.294 234.971L312.696 252.379L284.676 216.241L248.519 224.789Z" fill="#2F2E41"/>
<path d="M275.793 163.863L266.895 155.104L251.632 153.18L232.929 165.177L233.118 178.455L242.363 209.745C242.363 209.745 238.841 232.225 248.678 231.999C258.514 231.774 263.875 227.281 267.882 228.195C271.888 229.11 288.918 233.003 289.997 228.925C291.076 224.848 296.813 227.767 296.561 223.91C296.31 220.053 281.031 192.249 281.031 192.249L284.83 164.442L275.793 163.863Z" fill="#6C63FF"/>
<path d="M332.133 123.542C332.212 124.269 332.117 125.002 331.854 125.691C331.591 126.381 331.166 127.008 330.609 127.531C330.052 128.053 329.377 128.457 328.632 128.715C327.886 128.972 327.088 129.077 326.293 129.021L305.831 164.678L300.337 156.951L321.253 123.298C321.443 122.081 322.114 120.971 323.139 120.177C324.163 119.384 325.47 118.962 326.811 118.992C328.152 119.022 329.435 119.502 330.415 120.341C331.396 121.179 332.007 122.319 332.133 123.542Z" fill="#FFB6B6"/>
<path d="M267.715 170.493C267.715 170.493 266.903 176.836 274.696 178.406C282.489 179.976 304.08 168.673 307.619 166.946C308.727 166.406 310.231 163.756 311.774 160.371C312.467 158.851 313.168 157.183 313.844 155.491C314.236 154.512 316.11 154.245 316.478 153.274C316.845 152.308 315.707 150.639 316.039 149.729C317.616 145.409 318.733 141.982 318.733 141.982L313.568 133.092C306.344 136.592 302.639 144.299 299.914 153.179L267.715 170.493Z" fill="#6C63FF"/>
<path d="M176.703 131.731C176.825 132.452 177.117 133.141 177.56 133.748C178.003 134.354 178.586 134.865 179.268 135.243C179.949 135.621 180.713 135.857 181.506 135.936C182.298 136.014 183.099 135.932 183.853 135.696L213.403 165.526L216.611 156.785L187.17 128.999C186.653 127.865 185.7 126.944 184.492 126.411C183.283 125.877 181.903 125.769 180.613 126.105C179.323 126.442 178.212 127.201 177.491 128.237C176.771 129.274 176.49 130.517 176.703 131.731Z" fill="#FFB6B6"/>
<path d="M251.895 162.417C251.895 162.417 254.413 168.371 247.297 171.679C240.181 174.986 216.19 168.993 212.292 168.133C211.071 167.863 208.891 165.643 206.473 162.719C205.387 161.406 204.253 159.952 203.136 158.469C202.49 157.611 200.602 157.782 199.98 156.927C199.361 156.076 200.007 154.199 199.437 153.394C196.731 149.573 194.713 146.511 194.713 146.511L197.286 136.72C205.236 138.451 210.928 145.064 215.991 153.036L251.895 162.417Z" fill="#6C63FF"/>
<path d="M259.568 150.952C267.589 150.952 274.091 144.994 274.091 137.645C274.091 130.296 267.589 124.338 259.568 124.338C251.547 124.338 245.045 130.296 245.045 137.645C245.045 144.994 251.547 150.952 259.568 150.952Z" fill="#FFB6B6"/>
<path d="M276.146 130.026C274.618 127.86 271.752 126.417 268.973 126.823C268.714 125.198 267.974 123.669 266.832 122.402C265.691 121.136 264.192 120.181 262.5 119.641C260.807 119.101 258.985 118.997 257.232 119.34C255.479 119.684 253.863 120.461 252.559 121.587C252.13 121.311 251.63 121.14 251.109 121.092C250.587 121.044 250.06 121.121 249.58 121.314C248.623 121.713 247.791 122.325 247.16 123.094C245.565 124.916 244.539 127.101 244.192 129.414C243.845 131.728 244.189 134.085 245.187 136.234C244.848 135.103 246.085 134.039 247.335 133.785C248.585 133.531 249.897 133.771 251.165 133.606C252.79 133.394 254.25 132.53 255.878 132.336C257.258 132.253 258.642 132.416 259.955 132.816C261.267 133.215 262.65 133.385 264.031 133.317C265.4 133.168 267.165 137.925 267.141 141.275C267.137 141.91 267.279 142.725 267.957 142.859C268.79 143.025 269.274 141.971 270.067 141.683C270.433 141.587 270.825 141.625 271.161 141.789C271.497 141.953 271.751 142.229 271.868 142.561C271.968 142.898 271.979 143.252 271.9 143.594C271.82 143.936 271.653 144.255 271.411 144.525C270.923 145.061 270.344 145.522 269.696 145.889L270.023 146.138C270.333 146.438 270.748 146.63 271.196 146.681C271.644 146.732 272.097 146.639 272.479 146.417C273.228 145.952 273.835 145.319 274.241 144.578C275.773 142.407 276.869 140.003 277.475 137.478C277.987 134.943 277.674 132.191 276.146 130.026Z" fill="#2F2E41"/>
<path d="M383.586 182.508C364.854 195.508 327.581 191.401 316.014 213.669C280.994 281.09 251.033 229.731 220.37 224.177L220.087 222.8C250.783 225.133 283.709 221.514 315.304 212.332C343.856 204.036 369.331 191.695 388.971 176.657L390 177.834C387.926 179.422 385.788 180.981 383.586 182.508Z" fill="#F2F2F2"/>
<path d="M304.386 359.091C303.94 360.302 49.2128 360.302 48.7314 359.094C49.177 357.881 303.904 357.881 304.386 359.091Z" fill="#CCCCCC"/>
</svg>
