<svg width="16" height="16" viewBox="0 0 16 16" fill="none" xmlns="http://www.w3.org/2000/svg">
<path d="M10.6667 1.33333L13.3333 3.99999H10.6667V1.33333ZM9.33332 5.33333H13.3333V14C13.3333 14.1768 13.2631 14.3464 13.1381 14.4714C13.013 14.5964 12.8435 14.6667 12.6667 14.6667H3.33332C3.15651 14.6667 2.98694 14.5964 2.86192 14.4714C2.73689 14.3464 2.66666 14.1768 2.66666 14V1.99999C2.66666 1.82318 2.73689 1.65361 2.86192 1.52859C2.98694 1.40357 3.15651 1.33333 3.33332 1.33333H9.33332V5.33333ZM4.66666 3.99999C4.66666 4.17681 4.73689 4.34638 4.86192 4.4714C4.98694 4.59642 5.15651 4.66666 5.33332 4.66666H7.33332C7.51013 4.66666 7.6797 4.59642 7.80473 4.4714C7.92975 4.34638 7.99999 4.17681 7.99999 3.99999C7.99999 3.82318 7.92975 3.65361 7.80473 3.52859C7.6797 3.40357 7.51013 3.33333 7.33332 3.33333H5.33332C5.15651 3.33333 4.98694 3.40357 4.86192 3.52859C4.73689 3.65361 4.66666 3.82318 4.66666 3.99999ZM11.3333 12C11.3333 11.8232 11.2631 11.6536 11.1381 11.5286C11.013 11.4036 10.8435 11.3333 10.6667 11.3333H5.33332C5.15651 11.3333 4.98694 11.4036 4.86192 11.5286C4.73689 11.6536 4.66666 11.8232 4.66666 12C4.66666 12.1768 4.73689 12.3464 4.86192 12.4714C4.98694 12.5964 5.15651 12.6667 5.33332 12.6667H10.6667C10.8435 12.6667 11.013 12.5964 11.1381 12.4714C11.2631 12.3464 11.3333 12.1768 11.3333 12ZM5.33332 8.66666C5.15651 8.66666 4.98694 8.7369 4.86192 8.86192C4.73689 8.98695 4.66666 9.15652 4.66666 9.33333C4.66666 9.51014 4.73689 9.67971 4.86192 9.80473C4.98694 9.92976 5.15651 10 5.33332 10H10.6667C10.8435 10 11.013 9.92976 11.1381 9.80473C11.2631 9.67971 11.3333 9.51014 11.3333 9.33333C11.3333 9.15652 11.2631 8.98695 11.1381 8.86192C11.013 8.7369 10.8435 8.66666 10.6667 8.66666H5.33332Z" fill="white"/>
</svg>
