<svg width="12" height="12" viewBox="0 0 12 12" fill="none" xmlns="http://www.w3.org/2000/svg">
<path d="M5.99532 0C5.49614 0.915525 5.23525 1.9419 5.23666 2.98467C5.19815 4.53893 5.77817 6.04493 6.84931 7.17182C7.92045 8.29871 9.39511 8.95433 10.9493 8.99467C11.0827 8.99467 11.206 8.98333 11.3333 8.97467C10.8571 9.87876 10.1452 10.6372 9.27311 11.1698C8.40101 11.7024 7.40113 11.9893 6.37932 12C4.82511 11.9597 3.35045 11.304 2.27931 10.1771C1.20817 9.05026 0.628149 7.54427 0.666658 5.99C0.633888 4.50309 1.16516 3.05889 2.15369 1.94768C3.14221 0.836465 4.51472 0.140618 5.99532 0Z" fill="#845EF7"/>
</svg>
