<svg width="16" height="16" viewBox="0 0 16 16" fill="none" xmlns="http://www.w3.org/2000/svg">
<path d="M4.66665 8.00001C4.66665 7.34074 4.86214 6.69627 5.22841 6.14811C5.59469 5.59995 6.11528 5.1727 6.72437 4.92041C7.33346 4.66812 8.00368 4.60211 8.65028 4.73073C9.29688 4.85934 9.89083 5.17681 10.357 5.64299C10.8232 6.10916 11.1406 6.70311 11.2693 7.34971C11.3979 7.99631 11.3319 8.66653 11.0796 9.27562C10.8273 9.88471 10.4 10.4053 9.85188 10.7716C9.30372 11.1378 8.65925 11.3333 7.99998 11.3333C7.11592 11.3333 6.26808 10.9822 5.64296 10.357C5.01784 9.73191 4.66665 8.88407 4.66665 8.00001ZM7.99998 3.33334C8.17679 3.33334 8.34636 3.26311 8.47138 3.13808C8.59641 3.01306 8.66665 2.84349 8.66665 2.66668V2.00001C8.66665 1.8232 8.59641 1.65363 8.47138 1.52861C8.34636 1.40358 8.17679 1.33334 7.99998 1.33334C7.82317 1.33334 7.6536 1.40358 7.52858 1.52861C7.40355 1.65363 7.33331 1.8232 7.33331 2.00001V2.66668C7.33331 2.84349 7.40355 3.01306 7.52858 3.13808C7.6536 3.26311 7.82317 3.33334 7.99998 3.33334ZM7.33331 13.3333V14C7.33331 14.1768 7.40355 14.3464 7.52858 14.4714C7.6536 14.5964 7.82317 14.6667 7.99998 14.6667C8.17679 14.6667 8.34636 14.5964 8.47138 14.4714C8.59641 14.3464 8.66665 14.1768 8.66665 14V13.3333C8.66665 13.1565 8.59641 12.987 8.47138 12.8619C8.34636 12.7369 8.17679 12.6667 7.99998 12.6667C7.82317 12.6667 7.6536 12.7369 7.52858 12.8619C7.40355 12.987 7.33331 13.1565 7.33331 13.3333ZM14 7.33334H13.3333C13.1565 7.33334 12.9869 7.40358 12.8619 7.52861C12.7369 7.65363 12.6666 7.8232 12.6666 8.00001C12.6666 8.17682 12.7369 8.34639 12.8619 8.47141C12.9869 8.59644 13.1565 8.66668 13.3333 8.66668H14C14.1768 8.66668 14.3464 8.59644 14.4714 8.47141C14.5964 8.34639 14.6666 8.17682 14.6666 8.00001C14.6666 7.8232 14.5964 7.65363 14.4714 7.52861C14.3464 7.40358 14.1768 7.33334 14 7.33334ZM1.99998 8.66668H2.66665C2.84346 8.66668 3.01303 8.59644 3.13805 8.47141C3.26307 8.34639 3.33331 8.17682 3.33331 8.00001C3.33331 7.8232 3.26307 7.65363 3.13805 7.52861C3.01303 7.40358 2.84346 7.33334 2.66665 7.33334H1.99998C1.82317 7.33334 1.6536 7.40358 1.52858 7.52861C1.40355 7.65363 1.33331 7.8232 1.33331 8.00001C1.33331 8.17682 1.40355 8.34639 1.52858 8.47141C1.6536 8.59644 1.82317 8.66668 1.99998 8.66668ZM11.7713 4.89534C11.9481 4.89531 12.1177 4.82504 12.2426 4.70001L12.714 4.22868C12.7777 4.16718 12.8284 4.09362 12.8634 4.01228C12.8983 3.93094 12.9167 3.84346 12.9175 3.75494C12.9183 3.66642 12.9014 3.57864 12.8679 3.49671C12.8343 3.41478 12.7848 3.34034 12.7222 3.27775C12.6596 3.21515 12.5852 3.16565 12.5033 3.13213C12.4214 3.09861 12.3336 3.08174 12.245 3.08251C12.1565 3.08328 12.069 3.10167 11.9877 3.13661C11.9064 3.17155 11.8328 3.22234 11.7713 3.28601L11.3 3.75734C11.2068 3.85058 11.1433 3.96935 11.1176 4.09866C11.0919 4.22796 11.1051 4.36198 11.1555 4.48378C11.206 4.60558 11.2914 4.70969 11.401 4.78294C11.5106 4.8562 11.6395 4.89532 11.7713 4.89534ZM3.75731 11.3L3.28598 11.7713C3.22231 11.8328 3.17152 11.9064 3.13658 11.9877C3.10164 12.0691 3.08325 12.1566 3.08248 12.2451C3.08171 12.3336 3.09858 12.4214 3.1321 12.5033C3.16562 12.5852 3.21512 12.6597 3.27772 12.7223C3.34031 12.7849 3.41475 12.8344 3.49668 12.8679C3.57861 12.9014 3.66639 12.9183 3.75491 12.9175C3.84343 12.9167 3.93091 12.8984 4.01225 12.8634C4.09359 12.8285 4.16715 12.7777 4.22865 12.714L4.69998 12.2427C4.82142 12.1169 4.88861 11.9485 4.8871 11.7737C4.88558 11.5989 4.81546 11.4317 4.69186 11.3081C4.56825 11.1845 4.40105 11.1144 4.22625 11.1129C4.05145 11.1114 3.88305 11.1786 3.75731 11.3ZM11.3 11.3C11.175 11.425 11.1048 11.5946 11.1048 11.7713C11.1048 11.9481 11.175 12.1177 11.3 12.2427L11.7713 12.714C11.897 12.8354 12.0654 12.9026 12.2402 12.9011C12.415 12.8996 12.5823 12.8295 12.7059 12.7059C12.8295 12.5823 12.8996 12.4151 12.9011 12.2403C12.9026 12.0655 12.8354 11.8971 12.714 11.7713L12.2426 11.3C12.1176 11.175 11.9481 11.1048 11.7713 11.1048C11.5945 11.1048 11.425 11.175 11.3 11.3ZM3.75731 4.70001C3.88305 4.82145 4.05145 4.88865 4.22625 4.88713C4.40105 4.88561 4.56825 4.81549 4.69186 4.69189C4.81546 4.56828 4.88558 4.40108 4.8871 4.22628C4.88861 4.05148 4.82142 3.88308 4.69998 3.75734L4.22865 3.28601C4.10291 3.16457 3.93451 3.09738 3.75971 3.09889C3.58491 3.10041 3.41771 3.17053 3.2941 3.29413C3.1705 3.41774 3.10038 3.58494 3.09886 3.75974C3.09734 3.93454 3.16454 4.10294 3.28598 4.22868L3.75731 4.70001Z" fill="#FAB005"/>
</svg>
